<?xml version="1.0" encoding="utf-8"?>
<!-- Generator: Adobe Illustrator 24.1.0, SVG Export Plug-In . SVG Version: 6.00 Build 0)  -->
<svg version="1.1" id="Capa_1" xmlns="http://www.w3.org/2000/svg" xmlns:xlink="http://www.w3.org/1999/xlink" x="0px" y="0px"
	 viewBox="0 0 135 80" style="enable-background:new 0 0 135 80;" xml:space="preserve">
<style type="text/css">
	.st0{fill:#194185;}
	.st1{fill:#7C1145;}
	.st2{fill:#44A249;}
	.st3{fill:#58A4DB;}
	.st4{fill:#E95439;}
	.st5{fill:#0096C7;}
	.st6{fill:#0078B7;}
</style>
<g>
	<g>
		<path class="st0" d="M47.7,0l-17,45H17.2L0.3,0h14.6l9.7,26.4l9.8-26.3h13.3V0z"/>
		<path class="st0" d="M85.6,45l-0.1-20.6l-8.7,16.5h-6L62,25.2V45H49.7V0h11.1l13.1,24L86.7,0h11.1L98,45C98,45,85.6,45,85.6,45z"
			/>
		<path class="st0" d="M107.3,43.6c-3-0.8-5.5-1.8-7.4-3.2l4.2-10.5c1.9,1.2,3.9,2.1,6.2,2.9s4.4,1.1,6.6,1.1c1.7,0,3.1-0.2,3.9-0.6
			c0.8-0.5,1.2-0.9,1.2-1.8s-0.5-1.5-1.5-2c-0.9-0.5-2.7-0.9-5-1.5c-3-0.8-5.4-1.5-7.4-2.3s-3.8-2.1-5.1-3.9
			c-1.5-1.8-2.1-4.4-2.1-7.4c0-2.7,0.7-5.1,2-7.4s3.4-3.9,6-5.3c2.7-1.2,5.9-2,9.8-2c2.7,0,5.2,0.3,7.8,0.9c2.5,0.6,4.8,1.5,6.7,2.9
			l-3.9,10.5c-3.8-2.1-7.4-3.2-10.7-3.2c-3.4,0-5,0.9-5,2.7c0,0.9,0.5,1.5,1.5,2s2.5,0.9,4.8,1.4c3,0.6,5.4,1.4,7.4,2.1
			c2,0.8,3.8,2.1,5.2,3.9c1.5,1.8,2.3,4.2,2.3,7.4c0,2.7-0.7,5.1-2,7.4c-1.7,2.1-3.8,3.9-6.4,5.1c-2.7,1.4-5.9,2-9.8,2
			C113.4,44.8,110.3,44.5,107.3,43.6z"/>
	</g>
	<g>
		<g>
			<path class="st1" d="M58.4,73.2L58.4,73.2L58.4,73.2L58,69.4v-0.3h-0.3H56h-1.7H54v0.3L53.6,73l0,0l0,0c0.1,2.3,1.6,2.9,2.1,2.9
				v2.6l-1.3,0.8c-0.3,0.2-0.3,0.5,0,0.5H56h1.6c0.3,0,0.3-0.2,0-0.5l-1.3-0.8v-2.6C56.8,75.9,58.4,75.4,58.4,73.2z M54.1,72.1
				l0.3-2.7h1.7h1.7l0.4,3.6v-0.3c-0.5,0.2-1.1,0.2-1.6-0.3C55.7,71.8,54.9,71.7,54.1,72.1z"/>
			<g>
				<g>
					<path class="st2" d="M67.1,75.7c0-0.3,0-0.5,0.1-0.6c-0.4,0-0.7-0.3-0.9-0.6c-0.3,0.3-0.8,0.6-1.2,0.6H65
						c-0.1,0.2-0.1,0.5-0.1,0.6c0,0.8,0.5,1.5,1.3,1.5c0.5,0,0.9-0.3,1.2-0.8C67.1,76.3,67.1,76,67.1,75.7z"/>
					<path class="st2" d="M68.2,73.3c0-0.5,0.1-0.8,0.3-1.1c-0.3-0.3-0.5-0.5-0.9-0.5c-0.8,0-1.3,0.6-1.3,1.5c0,0.8,0.5,1.5,1.3,1.5
						c0.4,0,0.7-0.2,0.9-0.5C68.3,74.1,68.2,73.6,68.2,73.3z"/>
					<path class="st2" d="M69.9,74.7c-0.8,0-1.3-0.6-1.3-1.5s0.5-1.5,1.3-1.5s1.3,0.6,1.3,1.5S70.6,74.7,69.9,74.7z"/>
					<path class="st2" d="M67.5,70.9c1.5,0.5,2.3,0,2.4-1.8C68.3,69.1,67.5,69.7,67.5,70.9z"/>
					<path class="st2" d="M67.5,76.9c-0.3,0.5-0.7,0.6-1.1,0.8c-0.1,0.2-0.1,0.5-0.1,0.8c0,0.8,0.5,1.5,1.3,1.5
						c0.8,0,1.3-0.6,1.3-1.5c0-0.3,0-0.5-0.1-0.6C68.2,77.5,67.8,77.4,67.5,76.9z"/>
					<path class="st2" d="M70.1,75.1h-0.1c-0.4,0-0.9-0.2-1.2-0.6C68.4,74.8,68,75,67.6,75c-0.1,0.2-0.1,0.5-0.1,0.6
						c0,0.8,0.5,1.5,1.3,1.5c0.8,0,1.3-0.6,1.3-1.5C70.2,75.6,70.2,75.3,70.1,75.1z"/>
					<path class="st2" d="M65.8,73.3c0-0.3,0.1-0.6,0.3-0.9C65.8,72.1,65.4,72,65,72c-0.8,0-1.3,0.6-1.3,1.5c0,0.8,0.5,1.5,1.3,1.5
						c0.4,0,0.8-0.2,1.1-0.5C65.9,73.9,65.8,73.6,65.8,73.3z"/>
				</g>
			</g>
			<path class="st3" d="M90.4,77.2C90,78,89.5,78.6,89.4,79c-0.1,0.5,0,0.8,0.4,0.6c0.5-0.3,0.9-0.6,1.5-0.6s1.1,0.5,1.5,0.6
				c0.5,0.2,0.7,0,0.4-0.6c-0.1-0.5-0.5-1.2-1.1-1.8c2.8-3.2,1.1-7.5-0.9-8.1C89.4,69.9,87.5,74.2,90.4,77.2z M91,70.9
				c0,0.2-0.1,0.3-0.3,0.3s-0.3-0.2-0.3-0.3c0-0.2,0.1-0.3,0.3-0.3C90.8,70.5,91,70.6,91,70.9z"/>
			<g>
				<path class="st4" d="M77,78.7c0.7,0,0.8-0.3,1.1-1.1c0.4-1.1,1.1-2,2-2.3c1.6-0.6,2.5-2.4,1.7-4.5l0.5,0.5
					c1.2,1.8,0.5,4.4-1.3,5c-0.9,0.5-1.7,1.2-2,2.3c-0.3,0.8-0.7,1.1-1.3,0.8L77,78.7z"/>
				<path class="st4" d="M80.8,70.5c-2-2.1-5.6,1.4-4.2,7.2c0.1,0.5,0.5,0.5,0.9-0.5c0.4-1.4,1.5-2.3,1.9-2.4
					C81.3,74.5,82.3,72.1,80.8,70.5z M80.1,72.9c-0.3,0.5-0.8,0.5-1.1,0.2c-0.4-0.3-0.4-0.9-0.1-1.4c0.3-0.5,0.8-0.5,1.1-0.2
					C80.3,72,80.4,72.6,80.1,72.9z"/>
				<path class="st4" d="M76.9,70.9c1.1-1.7,2.7-2.3,4-0.9l0.9,0.9l0.5,0.5c0.8,1.2,0.8,2.7,0.1,3.8c-0.4,0.5-0.8,0.9-1.5,1.2
					c-0.7,0.3-1.2,0.8-1.6,1.4C79.3,78,79,78.3,79,78.6c0,0.2-0.1,0.3-0.3,0.5c-0.3,0.5-0.7,0.5-1.1,0.3l0,0L77,78.7L76.2,78
					C75.3,75.3,75.8,72.6,76.9,70.9 M76.8,70.9c-1.1,1.5-1.7,4.2-0.7,7.2l0,0l0,0l0.8,0.8l0.7,0.6l0,0l0,0l0,0
					c0.5,0.3,0.9,0.2,1.2-0.3c0.1-0.2,0.1-0.3,0.3-0.6s0.3-0.6,0.4-0.9c0.4-0.6,0.9-1.1,1.6-1.2s1.2-0.6,1.6-1.2
					c0.8-1.2,0.8-2.9-0.1-4.1l0,0l0,0L82,70.8l-0.9-0.9C79.7,68.7,78,69,76.8,70.9L76.8,70.9z"/>
			</g>
		</g>
		<g>
			<path class="st5" d="M49,74.4l-3.4-3.9h-0.1l-0.8,0.9v0.2l2.4,2.7v0.2l-2.4,2.7v0.2l0.8,0.9h0.1l3.4-3.9C49,74.5,49,74.4,49,74.4
				z"/>
			<path class="st6" d="M44.7,74.4l-3.4-3.9h-0.1l-0.8,0.9v0.2l2.4,2.7v0.2l-2.4,2.7v0.2l0.8,0.9h0.1l3.4-3.9
				C44.7,74.5,44.7,74.4,44.7,74.4z"/>
		</g>
		<g>
			<path class="st6" d="M102.8,74.4l3.4-3.9h0.1l0.8,0.9v0.2l-2.3,2.9v0.2l2.4,2.7v0.2l-0.9,1.1h-0.1l-3.4-3.9
				C102.7,74.5,102.7,74.4,102.8,74.4z"/>
			<path class="st5" d="M98.5,74.4l3.4-3.9h0.1l0.8,0.9v0.2l-2.3,2.9v0.2l2.4,2.7v0.2l-0.8,0.9H102l-3.4-3.9
				C98.5,74.5,98.5,74.4,98.5,74.4z"/>
		</g>
	</g>
	<g>
		<path class="st0" d="M33.4,60.7V54h-1.3v-0.5h3.1V54h-1.3v6.8H33.4z"/>
		<path class="st0" d="M47.3,53.5c0.9,0,1.3,0.6,1.3,1.7v0.6c0,0.9-0.3,1.4-0.9,1.5c0.7,0.2,0.9,0.8,0.9,1.5V60c0,0.3,0,0.6,0.1,0.9
			h-0.4c-0.1-0.2-0.1-0.5-0.1-0.9v-1.2c0-0.9-0.5-1.2-1.2-1.2h-0.7v3.3h-0.4v-7.2h1.3V53.5z M47,57.1c0.8,0,1.2-0.3,1.2-1.2v-0.8
			c0-0.8-0.3-1.2-0.9-1.2h-0.9v3.2H47z"/>
		<path class="st0" d="M60.3,59.1L60,60.7h-0.4l1.5-7.2h0.7l1.5,7.2h-0.4l-0.3-1.7H60.3z M60.3,58.8h1.9l-0.9-4.7L60.3,58.8z"/>
		<path class="st0" d="M75.2,53.5c0.9,0,1.5,0.8,1.5,1.8v3.6c0,1.1-0.4,1.8-1.5,1.8h-1.5v-7.2C73.7,53.5,75.2,53.5,75.2,53.5z
			 M75.2,60.3c0.7,0,1.1-0.6,1.1-1.4v-3.8c0-0.8-0.3-1.4-1.1-1.4h-0.9v6.3h0.9V60.3z"/>
		<path class="st0" d="M87.9,53.5v7.2h-0.4v-7.2H87.9z"/>
		<path class="st0" d="M99.2,60.7h-0.4v-7.2h0.5l1.9,6.2v-6.2h0.4v7.2H101l-2-6.5v6.5H99.2z"/>
		<path class="st0" d="M115.3,55.3v0.6h-0.4v-0.6c0-0.8-0.3-1.4-0.9-1.4s-0.9,0.6-0.9,1.4v3.8c0,0.8,0.3,1.4,0.9,1.4
			s0.9-0.6,0.9-1.4v-1.5h-0.8v-0.5h1.2v2c0,1.1-0.4,1.8-1.3,1.8s-1.3-0.8-1.3-1.8v-3.8c0-1.1,0.4-1.8,1.3-1.8
			C114.9,53.5,115.3,54.3,115.3,55.3z"/>
	</g>
</g>
</svg>
