<?xml version="1.0" encoding="utf-8"?>
<!-- Generator: Adobe Illustrator 24.1.0, SVG Export Plug-In . SVG Version: 6.00 Build 0)  -->
<svg version="1.1" id="Capa_1" xmlns="http://www.w3.org/2000/svg" xmlns:xlink="http://www.w3.org/1999/xlink" x="0px" y="0px"
	 viewBox="0 0 100 54" style="enable-background:new 0 0 100 54;" xml:space="preserve">
<style type="text/css">
	.st0{fill:#194185;}
	.st1{fill:#7C1145;}
	.st2{fill:#44A249;}
	.st3{fill:#58A4DB;}
	.st4{fill:#E95439;}
	.st5{fill:#0096C7;}
	.st6{fill:#0078B7;}
</style>
<g>
	<g>
		<path class="st0" d="M35.3,0.4l-12.7,30h-10L0,0.4h10.9L18.1,18l7.3-17.5H35.3z"/>
		<path class="st0" d="M63.6,30.4l-0.1-13.7l-6.5,11h-4.5L46,17.2v13.2h-9.2v-30h8.3l9.8,16l9.5-16h8.3l0.1,30H63.6z"/>
		<path class="st0" d="M79.8,29.5c-2.2-0.5-4.1-1.2-5.5-2.1l3.1-7c1.4,0.8,2.9,1.4,4.6,1.9c1.7,0.5,3.3,0.7,4.9,0.7
			c1.3,0,2.3-0.1,2.9-0.4c0.6-0.3,0.9-0.6,0.9-1.2c0-0.6-0.4-1-1.1-1.3c-0.7-0.3-2-0.6-3.7-1c-2.2-0.5-4-1-5.5-1.5
			c-1.5-0.5-2.8-1.4-3.8-2.6c-1.1-1.2-1.6-2.9-1.6-4.9c0-1.8,0.5-3.4,1.5-4.9c1-1.5,2.5-2.6,4.5-3.5c2-0.8,4.4-1.3,7.3-1.3
			c2,0,3.9,0.2,5.8,0.6c1.9,0.4,3.6,1,5,1.9l-2.9,7c-2.8-1.4-5.5-2.1-8-2.1c-2.5,0-3.7,0.6-3.7,1.8c0,0.6,0.4,1,1.1,1.3
			c0.7,0.3,1.9,0.6,3.6,0.9c2.2,0.4,4,0.9,5.5,1.4c1.5,0.5,2.8,1.4,3.9,2.6c1.1,1.2,1.7,2.8,1.7,4.9c0,1.8-0.5,3.4-1.5,4.9
			C97.5,27,96,28.2,94,29c-2,0.9-4.4,1.3-7.3,1.3C84.3,30.3,82,30.1,79.8,29.5z"/>
	</g>
	<g>
		<g>
			<path class="st1" d="M43.3,49.2L43.3,49.2L43.3,49.2l-0.3-2.5l0-0.2h-0.2h-1.3h-1.3h-0.2l0,0.2l-0.3,2.4l0,0l0,0
				c0.1,1.5,1.2,1.9,1.6,1.9v1.7l-1,0.5c-0.2,0.1-0.2,0.3,0,0.3h1.2h1.2c0.2,0,0.2-0.1,0-0.3l-1-0.5v-1.7
				C42.1,51,43.3,50.7,43.3,49.2z M40.1,48.5l0.2-1.8h1.3h1.3l0.3,2.4l0-0.2c-0.4,0.1-0.8,0.1-1.2-0.2
				C41.3,48.3,40.7,48.2,40.1,48.5z"/>
			<g>
				<g>
					<path class="st2" d="M49.8,50.9c0-0.2,0-0.3,0.1-0.4c-0.3,0-0.5-0.2-0.7-0.4c-0.2,0.2-0.6,0.4-0.9,0.4c0,0-0.1,0-0.1,0
						c-0.1,0.1-0.1,0.3-0.1,0.4c0,0.5,0.4,1,1,1c0.4,0,0.7-0.2,0.9-0.5C49.8,51.3,49.8,51.1,49.8,50.9z"/>
					<path class="st2" d="M50.6,49.3c0-0.3,0.1-0.5,0.2-0.7c-0.2-0.2-0.4-0.3-0.7-0.3c-0.6,0-1,0.4-1,1c0,0.5,0.4,1,1,1
						c0.3,0,0.5-0.1,0.7-0.3C50.7,49.8,50.6,49.5,50.6,49.3z"/>
					<path class="st2" d="M51.9,50.2c-0.6,0-1-0.4-1-1s0.4-1,1-1c0.6,0,1,0.4,1,1S52.4,50.2,51.9,50.2z"/>
					<path class="st2" d="M50.1,47.7c1.1,0.3,1.7,0,1.8-1.2C50.7,46.5,50.1,46.9,50.1,47.7z"/>
					<path class="st2" d="M50.1,51.7c-0.2,0.3-0.5,0.4-0.8,0.5c-0.1,0.1-0.1,0.3-0.1,0.5c0,0.5,0.4,1,1,1c0.6,0,1-0.4,1-1
						c0-0.2,0-0.3-0.1-0.4C50.6,52.1,50.3,52,50.1,51.7z"/>
					<path class="st2" d="M52,50.5c0,0-0.1,0-0.1,0c-0.3,0-0.7-0.1-0.9-0.4c-0.2,0.2-0.5,0.3-0.8,0.3c-0.1,0.1-0.1,0.3-0.1,0.4
						c0,0.5,0.4,1,1,1c0.6,0,1-0.4,1-1C52.1,50.8,52.1,50.6,52,50.5z"/>
					<path class="st2" d="M48.8,49.3c0-0.2,0.1-0.4,0.2-0.6c-0.2-0.2-0.5-0.3-0.8-0.3c-0.6,0-1,0.4-1,1c0,0.5,0.4,1,1,1
						c0.3,0,0.6-0.1,0.8-0.3C48.9,49.7,48.8,49.5,48.8,49.3z"/>
				</g>
			</g>
			<path class="st3" d="M67.2,51.9c-0.3,0.5-0.7,0.9-0.8,1.2c-0.1,0.3,0,0.5,0.3,0.4c0.4-0.2,0.7-0.4,1.1-0.4c0.4,0,0.8,0.3,1.1,0.4
				c0.4,0.1,0.5,0,0.3-0.4c-0.1-0.3-0.4-0.8-0.8-1.2c2.1-2.1,0.8-5-0.7-5.4C66.4,47,65,49.9,67.2,51.9z M67.6,47.7
				c0,0.1-0.1,0.2-0.2,0.2c-0.1,0-0.2-0.1-0.2-0.2s0.1-0.2,0.2-0.2C67.5,47.4,67.6,47.5,67.6,47.7z"/>
			<g>
				<path class="st4" d="M57.2,52.9c0.5,0,0.6-0.2,0.8-0.7c0.3-0.7,0.8-1.3,1.5-1.5c1.2-0.4,1.9-1.6,1.3-3l0.4,0.3
					c0.9,1.2,0.4,2.9-1,3.3c-0.7,0.3-1.3,0.8-1.5,1.5c-0.2,0.5-0.5,0.7-1,0.5L57.2,52.9z"/>
				<path class="st4" d="M60,47.4c-1.5-1.4-4.2,0.9-3.1,4.8c0.1,0.3,0.4,0.3,0.7-0.3c0.3-0.9,1.1-1.5,1.4-1.6
					C60.4,50.1,61.1,48.5,60,47.4z M59.5,49c-0.2,0.3-0.6,0.3-0.8,0.1c-0.3-0.2-0.3-0.6-0.1-0.9c0.2-0.3,0.6-0.3,0.8-0.1
					C59.6,48.4,59.7,48.8,59.5,49z"/>
				<path class="st4" d="M57.1,47.7c0.8-1.1,2-1.5,3-0.6l0.7,0.6l0.4,0.3c0.6,0.8,0.6,1.8,0.1,2.5c-0.3,0.3-0.6,0.6-1.1,0.8
					c-0.5,0.2-0.9,0.5-1.2,0.9c-0.1,0.2-0.3,0.4-0.3,0.6c0,0.1-0.1,0.2-0.2,0.3c-0.2,0.3-0.5,0.3-0.8,0.2l0,0l-0.5-0.4l-0.6-0.5
					C55.9,50.6,56.3,48.8,57.1,47.7 M57,47.7c-0.8,1-1.3,2.8-0.5,4.8l0,0l0,0l0.6,0.5l0.5,0.4l0,0l0,0l0,0c0.4,0.2,0.7,0.1,0.9-0.2
					c0.1-0.1,0.1-0.2,0.2-0.4c0.1-0.2,0.2-0.4,0.3-0.6c0.3-0.4,0.7-0.7,1.2-0.8c0.5-0.1,0.9-0.4,1.2-0.8c0.6-0.8,0.6-1.9-0.1-2.7
					l0,0l0,0l-0.4-0.3L60.2,47C59.2,46.2,57.9,46.4,57,47.7L57,47.7z"/>
			</g>
		</g>
		<g>
			<path class="st5" d="M36.3,50l-2.5-2.6c0,0-0.1,0-0.1,0l-0.6,0.6c0,0,0,0.1,0,0.1l1.8,1.8c0,0,0,0.1,0,0.1l-1.8,1.8
				c0,0,0,0.1,0,0.1l0.6,0.6c0,0,0.1,0,0.1,0l2.5-2.6C36.3,50.1,36.3,50,36.3,50z"/>
			<path class="st6" d="M33.1,50l-2.5-2.6c0,0-0.1,0-0.1,0l-0.6,0.6c0,0,0,0.1,0,0.1l1.8,1.8c0,0,0,0.1,0,0.1l-1.8,1.8
				c0,0,0,0.1,0,0.1l0.6,0.6c0,0,0.1,0,0.1,0l2.5-2.6C33.1,50.1,33.1,50,33.1,50z"/>
		</g>
		<g>
			<path class="st6" d="M76.4,50l2.5-2.6c0,0,0.1,0,0.1,0l0.6,0.6c0,0,0,0.1,0,0.1L77.9,50c0,0,0,0.1,0,0.1l1.8,1.8c0,0,0,0.1,0,0.1
				L79,52.7c0,0-0.1,0-0.1,0l-2.5-2.6C76.3,50.1,76.3,50,76.4,50z"/>
			<path class="st5" d="M73.2,50l2.5-2.6c0,0,0.1,0,0.1,0l0.6,0.6c0,0,0,0.1,0,0.1L74.7,50c0,0,0,0.1,0,0.1l1.8,1.8c0,0,0,0.1,0,0.1
				l-0.6,0.6c0,0-0.1,0-0.1,0l-2.5-2.6C73.2,50.1,73.2,50,73.2,50z"/>
		</g>
	</g>
	<g>
		<path class="st0" d="M24.7,40.9v-4.5h-1v-0.3H26v0.3h-1v4.5H24.7z"/>
		<path class="st0" d="M35,36.1c0.7,0,1,0.4,1,1.1v0.4c0,0.6-0.2,0.9-0.7,1c0.5,0.1,0.7,0.5,0.7,1v0.8c0,0.2,0,0.4,0.1,0.6h-0.3
			c-0.1-0.1-0.1-0.3-0.1-0.6v-0.8c0-0.6-0.4-0.8-0.9-0.8h-0.5v2.2H34v-4.8H35z M34.8,38.5c0.6,0,0.9-0.2,0.9-0.8v-0.5
			c0-0.5-0.2-0.8-0.7-0.8h-0.7v2.1H34.8z"/>
		<path class="st0" d="M44.7,39.8l-0.2,1.1h-0.3l1.1-4.8h0.5l1.1,4.8h-0.3l-0.2-1.1H44.7z M44.7,39.6h1.4l-0.7-3.1L44.7,39.6z"/>
		<path class="st0" d="M55.8,36.1c0.7,0,1.1,0.5,1.1,1.2v2.4c0,0.7-0.3,1.2-1.1,1.2h-1.1v-4.8H55.8z M55.8,40.6
			c0.5,0,0.8-0.4,0.8-0.9v-2.5c0-0.5-0.2-0.9-0.8-0.9h-0.7v4.2H55.8z"/>
		<path class="st0" d="M65.3,36.1v4.8H65v-4.8H65.3z"/>
		<path class="st0" d="M73.7,40.9h-0.3v-4.8h0.4l1.4,4.1v-4.1h0.3v4.8h-0.4l-1.5-4.3V40.9z"/>
		<path class="st0" d="M85.7,37.3v0.4h-0.3v-0.4c0-0.5-0.2-0.9-0.7-0.9c-0.5,0-0.7,0.4-0.7,0.9v2.5c0,0.5,0.2,0.9,0.7,0.9
			c0.5,0,0.7-0.4,0.7-0.9v-1h-0.6v-0.3h0.9v1.3c0,0.7-0.3,1.2-1,1.2c-0.7,0-1-0.5-1-1.2v-2.5c0-0.7,0.3-1.2,1-1.2
			C85.4,36.1,85.7,36.6,85.7,37.3z"/>
	</g>
</g>
</svg>
